# xmcd
#
# Track frame offsets:
#	187
#	21805
#	40602
#	58387
#	73637
#	95522
#	111342
#	128595
#	147912
#	166452
#
# Disc length: 2550 seconds
#
# Revision: 2
# Processed by: cddbd v1.5.2PL0 Copyright (c) Steve Scherf et al.
# Submitted via: audiograbber 1.83.01
#
DISCID=8b09f40a
DTITLE=Ther Oak Ridge Boys - Seasons
DYEAR=1900
DGENRE=
TTITLE0=Seasons
TTITLE1=What Are You Doing In My Dreams
TTITLE2=Bedtime
TTITLE3=Hidin' Place
TTITLE4=Don't Break The Code
TTITLE5=Juliet
TTITLE6=You Made A Rock Of A Rolling Stone
TTITLE7=Take A Step (Yesterday Waltz)
TTITLE8=What You Do To Me
TTITLE9=Everybody Wins
EXTD=
EXTT0=
EXTT1=
EXTT2=
EXTT3=
EXTT4=
EXTT5=
EXTT6=
EXTT7=
EXTT8=
EXTT9=
PLAYORDER=
